<svg width="24" height="24" viewBox="0 0 24 24" fill="none" xmlns="http://www.w3.org/2000/svg">
<path d="M7.92125 0.0496254C6.65061 0.180908 5.16899 0.701351 4.11404 1.38121C0.658485 3.61302 -0.84658 7.86096 0.475627 11.6729C0.831966 12.7137 0.897608 12.92 0.986693 13.3608C1.2727 14.7955 1.08984 16.2912 0.447495 17.7775C0.419363 17.8385 0.461561 17.8666 0.686617 17.9182C1.08984 18.0073 2.10729 17.9979 2.45894 17.8947C3.06847 17.7166 3.56546 17.454 3.99682 17.0789C4.27346 16.8398 4.47976 16.7366 4.68606 16.7366C4.76108 16.7366 5.07522 16.8398 5.37998 16.9664C6.42087 17.4071 7.38205 17.6181 8.53077 17.6603C12.3802 17.801 15.756 15.5785 17.1392 11.9917C17.3314 11.4947 17.5471 10.6413 17.6315 10.0318C17.7253 9.35196 17.7065 8.06257 17.5893 7.40616C17.2658 5.60102 16.4781 4.04438 15.2215 2.73155C13.3367 0.757616 10.6172 -0.241074 7.92125 0.0496254ZM4.67199 7.72499C4.97207 7.87972 5.14086 8.04851 5.27683 8.32514C5.38936 8.5502 5.39874 8.62053 5.37998 8.94405C5.35654 9.35196 5.28152 9.52544 5.02833 9.77863C4.78452 10.0271 4.48913 10.1443 4.12342 10.1397C3.76239 10.1397 3.5514 10.06 3.27946 9.81145C2.77777 9.36603 2.71681 8.61115 3.13411 8.08133C3.48576 7.6359 4.17968 7.47649 4.67199 7.72499ZM9.37943 7.7203C10.2046 8.08602 10.3781 9.20661 9.70294 9.81145C9.431 10.06 9.22001 10.1397 8.85898 10.1397C8.32916 10.1443 7.84154 9.82083 7.65868 9.35196C7.53677 9.02375 7.57897 8.51269 7.75714 8.22199C7.90718 7.98287 8.24008 7.7203 8.50264 7.64059C8.71363 7.57495 9.1403 7.61715 9.37943 7.7203ZM13.965 7.66873C14.3166 7.77188 14.6823 8.13759 14.7855 8.47987C14.8277 8.62053 14.8605 8.80339 14.8605 8.88309C14.8605 9.14097 14.7292 9.49262 14.551 9.69423C13.8806 10.4819 12.6381 10.2006 12.3474 9.20192C12.1223 8.43298 12.7365 7.61246 13.5523 7.5984C13.6414 7.59371 13.829 7.62653 13.965 7.66873Z" fill="#59ACE0"/>
<path d="M19.1928 7.13422C19.3241 8.02038 19.3522 9.15973 19.2631 9.97556C18.7568 14.6267 15.2403 18.3589 10.6172 19.1466C9.89048 19.2732 8.8871 19.3248 8.19787 19.2685C7.8509 19.2451 7.55083 19.2216 7.53207 19.2216C7.46643 19.2216 7.71493 19.6249 8.07596 20.1125C8.50732 20.6939 9.27626 21.4628 9.87641 21.9082C12.4646 23.8212 15.8357 24.2104 18.7661 22.921C19.3616 22.6584 19.5679 22.6772 19.9946 23.0382C20.9323 23.8353 22.0576 24.1494 23.1876 23.9338C23.3845 23.8962 23.558 23.854 23.572 23.84C23.5861 23.8259 23.5533 23.704 23.497 23.568C23.1125 22.6303 22.9719 21.9786 22.9391 20.9564C22.9109 19.9578 22.9953 19.3529 23.3142 18.3495C23.5955 17.4728 23.6986 17.0836 23.8112 16.5022C24.2003 14.4814 23.9893 12.7184 23.1594 10.9789C22.5546 9.71768 21.7388 8.70024 20.6557 7.85159C20.2525 7.54214 19.3007 6.9373 19.2069 6.9373C19.1834 6.9373 19.1741 7.017 19.1928 7.13422Z" fill="#59ACE0"/>
</svg>
