<svg width="24" height="24" viewBox="0 0 24 24" fill="none" xmlns="http://www.w3.org/2000/svg">
<path d="M8.86364 0.0862827C8.5777 0.246312 8.5027 0.433013 8.48863 1.04646L8.46988 1.59589H6.64171C4.62134 1.59589 4.5979 1.60123 4.38696 1.93729C4.28852 2.09732 4.28383 2.15599 4.26977 3.4469L4.25571 4.79648H14.1278H24L23.9859 3.4469C23.9672 1.4572 24.1406 1.59589 21.6093 1.59589H19.7764V1.11047C19.7764 0.331661 19.5749 0.0222712 19.0733 0.0222712C18.5717 0.0222712 18.3701 0.331661 18.3701 1.11047V1.59589H16.5888H14.8076V1.11047C14.8076 0.331661 14.606 0.0222712 14.1044 0.0222712C13.6028 0.0222712 13.4013 0.331661 13.4013 1.11047V1.59589H11.6434H9.88554V1.0998C9.88554 0.68906 9.86679 0.577039 9.77773 0.401007C9.59491 0.0329394 9.20115 -0.105752 8.86364 0.0862827Z" fill="#59ACE0"/>
<path d="M4.19478 7.06891C4.01196 11.0376 2.57286 15.0917 0.48687 17.5135C0.266552 17.7749 0.0602963 18.0469 0.0368581 18.1163C-0.0756449 18.463 0.0790468 18.9217 0.36968 19.0978C0.524371 19.1938 0.866567 19.1991 9.87618 19.1991C19.003 19.1991 19.2233 19.1991 19.3921 19.0978C19.4858 19.0391 19.7155 18.8204 19.8983 18.6017C21.1921 17.0921 22.35 14.841 23.0297 12.5152C23.5219 10.8403 23.8594 8.80256 23.9344 7.10091L23.9625 6.39678H14.095H4.22759L4.19478 7.06891Z" fill="#59ACE0"/>
<path d="M23.8594 14.5903C23.2219 16.3613 22.0218 18.4416 20.8968 19.7272C20.3858 20.3033 20.1561 20.5007 19.7858 20.6607L19.5186 20.7727L11.8872 20.7887L4.26041 20.7994V22.085C4.26041 23.2639 4.26978 23.3812 4.35416 23.5733C4.4151 23.7119 4.51354 23.824 4.63542 23.8933C4.81823 24 4.89324 24 14.1279 24C23.3625 24 23.4375 24 23.6203 23.8933C23.7422 23.824 23.8406 23.7119 23.9016 23.5733C23.9953 23.3652 23.9953 23.2852 23.9859 18.8204L23.9719 14.2756L23.8594 14.5903Z" fill="#59ACE0"/>
</svg>
