<svg width="24" height="24" viewBox="0 0 24 24" fill="none" xmlns="http://www.w3.org/2000/svg">
<path d="M8.25184 0.0428333C5.90889 0.305527 3.67392 1.49234 2.19021 3.26552C0.697102 5.04809 -0.082318 7.25753 0.00689276 9.44352C0.0350646 10.2128 0.147752 10.7804 0.523376 12.0939C0.875524 13.3323 0.922477 13.5481 0.955344 14.0641C1.01638 14.9695 0.81918 15.8467 0.354345 16.7661C0.0961035 17.2868 0.072627 17.3572 0.0914082 17.5589C0.105494 17.6808 0.157142 17.8357 0.208791 17.906C0.387212 18.1499 1.16194 18.4877 1.87562 18.6331C2.2935 18.7176 3.12927 18.7316 3.53776 18.6566C4.20919 18.5393 4.95574 18.2344 5.43936 17.8873L5.65534 17.7324L6.26104 17.9342C8.5946 18.7129 11.0221 18.5393 13.2476 17.4322C17.8256 15.1524 19.7225 9.80472 17.5485 5.3014C16.1353 2.37424 13.3697 0.408728 10.1534 0.0381413C9.66513 -0.0134583 8.75894 -0.0134583 8.25184 0.0428333ZM10.2943 1.49703C11.5855 1.6659 12.98 2.26635 14.0412 3.11072C16.9241 5.4046 17.8256 9.26057 16.2526 12.5489C15.5577 14.0031 14.1726 15.3964 12.6701 16.1469C12.0926 16.4377 11.4587 16.6629 10.8108 16.813C10.3413 16.9162 10.1018 16.9444 9.3928 16.9631C8.14385 16.996 7.35974 16.8552 6.23756 16.4096C5.91828 16.2783 5.60839 16.175 5.54265 16.175C5.36893 16.175 5.15294 16.2876 4.87123 16.5222C4.17632 17.1039 3.21378 17.3806 2.33107 17.2587C2.11039 17.2258 1.90379 17.1836 1.87093 17.1648C1.82397 17.132 1.85215 17.0194 1.98362 16.6629C2.08222 16.4049 2.21368 15.9452 2.27472 15.6356C2.38272 15.1243 2.38741 14.9976 2.36863 14.2283C2.34515 13.2901 2.32637 13.201 1.84745 11.5404C1.50469 10.3676 1.43426 9.96422 1.43426 9.18552C1.43426 7.92365 1.67373 6.90102 2.24655 5.74704C3.43916 3.33589 5.83846 1.70343 8.55234 1.44543C9.00779 1.40321 9.75434 1.42667 10.2943 1.49703Z" fill="#59ACE0"/>
<path d="M4.80078 8.14882C4.56132 8.2098 4.36881 8.33177 4.19978 8.52879C3.75842 9.04479 3.8852 9.83288 4.46741 10.1941C4.67401 10.3207 4.73974 10.3348 5.05902 10.3348C5.3783 10.3348 5.44404 10.3207 5.65063 10.1941C6.55213 9.63586 6.23285 8.24264 5.17171 8.13475C5.04494 8.12067 4.8806 8.13006 4.80078 8.14882Z" fill="#59ACE0"/>
<path d="M8.91385 8.16289C8.62274 8.24733 8.35981 8.46311 8.22834 8.73988C8.11565 8.96035 8.10157 9.0401 8.12035 9.32156C8.13443 9.59363 8.1626 9.68745 8.27999 9.85164C8.50536 10.1753 8.7636 10.3254 9.11575 10.3489C9.48668 10.3723 9.71205 10.302 9.95151 10.0862C10.3037 9.7672 10.421 9.36378 10.2943 8.92752C10.1252 8.34115 9.49607 7.99402 8.91385 8.16289Z" fill="#59ACE0"/>
<path d="M13.027 8.18165C12.3931 8.38336 12.0738 9.14799 12.379 9.73905C12.7358 10.4286 13.6233 10.574 14.1679 10.0299C14.4027 9.80003 14.4966 9.56079 14.4966 9.21366C14.4966 8.48187 13.7406 7.95179 13.027 8.18165Z" fill="#59ACE0"/>
<path d="M21.0418 8.38335C20.7648 8.51001 20.6287 8.74456 20.6568 9.05885C20.6756 9.27464 20.7132 9.35438 20.962 9.67806C22.1593 11.2542 22.7087 13.0837 22.5678 15.0351C22.5115 15.8373 22.4176 16.2782 22.0795 17.2774C21.7133 18.3704 21.6288 18.8114 21.6241 19.6698C21.6241 20.5517 21.7508 21.2366 22.0607 22.0294C22.1359 22.217 22.1969 22.3859 22.1969 22.4093C22.1969 22.4985 21.6288 22.5641 21.0841 22.5407C20.2436 22.5078 19.7178 22.2874 18.9196 21.64C18.6332 21.4102 18.4453 21.4195 17.7974 21.6822C17.2387 21.9121 16.802 22.0387 16.1634 22.1654C15.5765 22.278 14.0928 22.2827 13.4683 22.1654C12.163 21.9215 11.0455 21.4336 10.0032 20.6455C9.46323 20.2421 9.32237 20.1811 9.04535 20.2562C8.57582 20.3828 8.37862 20.8754 8.62277 21.3257C8.74955 21.565 9.81538 22.3061 10.5854 22.6908C11.9517 23.3757 13.2617 23.6806 14.83 23.6853C15.9568 23.6853 16.9569 23.5164 17.9429 23.1599L18.3374 23.0192L18.6754 23.2349C20.0934 24.1544 21.9058 24.2529 23.3707 23.4883C23.7792 23.2725 23.8966 23.1411 23.9248 22.8409C23.9435 22.6439 23.9107 22.5547 23.6337 21.9918C22.9434 20.5799 22.8636 19.3602 23.3754 17.9107C23.8684 16.5269 24.0046 15.7716 23.9999 14.4628C23.9952 13.1634 23.8121 12.169 23.366 11.0431C22.92 9.92199 22.0654 8.59914 21.6522 8.38804C21.4175 8.27077 21.2907 8.27077 21.0418 8.38335Z" fill="#59ACE0"/>
</svg>
