<svg width="24" height="24" viewBox="0 0 24 24" fill="none" xmlns="http://www.w3.org/2000/svg">
<path d="M8.84671 0.105364C8.57477 0.265408 8.481 0.526814 8.481 1.11364V1.59378H6.62904C4.86147 1.59378 4.76301 1.59911 4.58953 1.70047C4.46763 1.76982 4.36917 1.88186 4.30822 2.02056C4.21914 2.22329 4.21445 2.32998 4.21445 5.10409C4.21445 7.96355 4.18632 8.79578 4.04566 9.96944C3.61432 13.6185 2.29216 17.0701 0.57147 19.0333C0.327668 19.3054 0.102619 19.5988 0.0651104 19.6841C-0.0942992 20.0256 0.0510449 20.5057 0.369864 20.6924C0.543339 20.7938 0.641798 20.7991 2.38593 20.7991H4.21445V22.0795C4.21445 23.5465 4.23789 23.6639 4.58015 23.8826L4.76769 24H14.1025C23.3671 24 23.4421 24 23.6249 23.8933C23.7468 23.824 23.8453 23.7119 23.9062 23.5732C24 23.3652 24 23.2798 24 12.7969C24 2.31398 24 2.22862 23.9062 2.02056C23.8453 1.88186 23.7468 1.76982 23.6249 1.70047C23.4514 1.59911 23.353 1.59378 21.6089 1.59378H19.7803V1.11364C19.7803 0.516144 19.6866 0.265408 19.4053 0.100029C19.1708 -0.0333424 18.9833 -0.0333424 18.7489 0.100029C18.4675 0.265408 18.3738 0.516144 18.3738 1.11364V1.59378H16.5921H14.8105V1.11364C14.8105 0.516144 14.7167 0.265408 14.4354 0.100029C14.201 -0.0333424 14.0135 -0.0333424 13.779 0.100029C13.4977 0.265408 13.4039 0.516144 13.4039 1.11364V1.59378H11.6458H9.88756V1.11364C9.88756 0.516144 9.79379 0.265408 9.51248 0.100029C9.28274 -0.0333424 9.07176 -0.0333424 8.84671 0.105364ZM8.481 3.67435C8.481 4.05313 8.49976 4.2025 8.57477 4.36788C8.68261 4.60795 8.94985 4.79467 9.18428 4.79467C9.41871 4.79467 9.68595 4.60795 9.79379 4.36788C9.8688 4.2025 9.88756 4.05313 9.88756 3.67435V3.19422H11.6458H13.4039V3.67435C13.4039 4.27185 13.4977 4.52259 13.779 4.68797C14.0135 4.82134 14.201 4.82134 14.4354 4.68797C14.7167 4.52259 14.8105 4.27185 14.8105 3.67435V3.19422H16.5921H18.3738V3.67435C18.3738 4.05313 18.3925 4.2025 18.4675 4.36788C18.5754 4.60795 18.8426 4.79467 19.0771 4.79467C19.3115 4.79467 19.5787 4.60795 19.6866 4.36788C19.7616 4.2025 19.7803 4.05313 19.7803 3.67435V3.19422H21.1869H22.5934V4.79467V6.39511H14.1072H5.62101V4.79467V3.19422H7.051H8.481V3.67435ZM22.5747 8.27297C22.5606 8.42768 22.5372 8.75843 22.5231 9.00917C22.5091 9.25991 22.4528 9.79872 22.4012 10.2095C21.9746 13.6024 20.8306 16.622 19.1474 18.7879L18.8286 19.1987H10.558H2.28747L2.44688 18.9693C3.02825 18.1584 3.90501 16.3499 4.36917 15.0108C5.00681 13.165 5.43815 10.9884 5.55068 9.03584C5.56474 8.7691 5.58819 8.42768 5.60225 8.27297L5.62569 7.99556H14.1119H22.5981L22.5747 8.27297ZM22.5934 18.9586V22.3996H14.1072H5.62101V21.5993V20.7991H12.4194C20.3101 20.7991 19.3255 20.8951 20.0194 20.0629C20.8352 19.0866 21.5573 17.865 22.1855 16.4139C22.3965 15.9231 22.5747 15.523 22.5841 15.523C22.5888 15.5176 22.5934 17.0647 22.5934 18.9586Z" fill="#59ACE0"/>
</svg>
