<svg width="24" height="24" viewBox="0 0 24 24" fill="none" xmlns="http://www.w3.org/2000/svg">
<path d="M11.3437 0.731205C8.75155 1.05933 6.74061 2.69058 5.9578 5.09527C5.69999 5.87808 5.66249 6.24371 5.63905 8.13277L5.61093 9.87183L5.29686 9.92339C4.5328 10.0406 3.95155 10.5187 3.65155 11.2734L3.53905 11.5546L3.52499 16.3828C3.51561 19.8421 3.52499 21.3 3.56718 21.5296C3.7078 22.3921 4.3453 23.0625 5.19374 23.2453C5.37186 23.2828 7.29374 23.2968 12.0141 23.2968C19.1156 23.2968 18.8297 23.3062 19.35 23.0578C19.8797 22.8 20.325 22.1718 20.4328 21.5296C20.475 21.3 20.4844 19.8421 20.475 16.3828L20.4609 11.5546L20.3484 11.2734C20.0484 10.5187 19.4672 10.0406 18.7031 9.92339L18.3891 9.87183L18.3609 8.13277C18.3375 6.24371 18.3 5.87808 18.0422 5.09527C17.5219 3.49683 16.3969 2.17027 14.925 1.42027C14.3906 1.14371 13.7719 0.92808 13.2141 0.820269C12.8297 0.745268 11.6719 0.689018 11.3437 0.731205ZM13.0219 2.22183C14.6062 2.55933 15.9281 3.65152 16.5609 5.15621C16.8797 5.90621 16.8891 5.98589 16.9078 8.02495L16.9266 9.89058H12H7.07343L7.09218 8.02495C7.10624 6.29527 7.11561 6.14058 7.20936 5.80777C7.48124 4.84214 7.91718 4.12027 8.62499 3.44995C9.41718 2.70464 10.2797 2.31089 11.5078 2.13745C11.7703 2.09995 12.6797 2.15152 13.0219 2.22183ZM18.7031 11.3859C18.7922 11.4328 18.9094 11.5453 18.9609 11.6296C19.0547 11.7843 19.0547 11.8734 19.0547 16.5937C19.0547 21.3 19.0547 21.4031 18.9609 21.5531C18.9094 21.6375 18.7828 21.7453 18.6797 21.7968C18.4875 21.8906 18.3656 21.8906 12 21.8906C5.63437 21.8906 5.51249 21.8906 5.3203 21.7968C5.21718 21.7453 5.09061 21.6375 5.03905 21.5531C4.9453 21.4031 4.9453 21.3 4.9453 16.5937C4.9453 11.8453 4.9453 11.789 5.03905 11.625C5.0953 11.5359 5.2078 11.4234 5.29686 11.3812C5.45155 11.3015 5.86874 11.2968 12 11.2968C18.2906 11.2968 18.5484 11.3015 18.7031 11.3859Z" fill="#6E7370"/>
<path d="M11.4375 13.4906C11.2687 13.5328 11.039 13.6265 10.9219 13.6969C9.99373 14.2406 9.6281 15.4453 10.0875 16.4203C10.289 16.8422 10.6265 17.1937 11.0109 17.3765L11.2922 17.5078L11.2969 18.375C11.2969 19.1062 11.3109 19.2703 11.3812 19.4062C11.6109 19.8703 12.389 19.8703 12.6187 19.4062C12.689 19.2703 12.7031 19.1062 12.7031 18.375L12.7078 17.5078L12.989 17.3765C13.6031 17.0859 14.0484 16.4156 14.0953 15.7172C14.1703 14.625 13.5281 13.7203 12.5109 13.4765C12.1265 13.3875 11.8172 13.3922 11.4375 13.4906ZM12.4312 14.9578C12.8203 15.2344 12.7687 15.9469 12.3469 16.1484C12.1547 16.2375 11.8453 16.2375 11.6531 16.1484C11.2594 15.9609 11.1797 15.2859 11.5219 14.9859C11.7375 14.789 12.1781 14.7797 12.4312 14.9578Z" fill="#6E7370"/>
</svg>
